STARTFONT 2.1
FONT -ibm-courier-bold-o-normal--14-140-75-75-m-83-iso8859-2
SIZE 14 75 75
FONTBOUNDINGBOX 14 16 -1 -2
COMMENT $Header: courBO14.bdf,v 1.1 96/01/22 23:45:33 peterlin Exp $
COMMENT 
COMMENT Copyright International Business Machines,Corp. 1991
COMMENT IBM Courier is a Trademark of the IBM Corporation.
COMMENT 
COMMENT Automatic rendering from Adobe Type 1 outline:
COMMENT Primoz Peterlin <primoz.peterlin@biofiz.mf.uni-lj.si>
COMMENT courbi.pfa rendered at 15.000000 points
COMMENT Checksum eb69a063
STARTPROPERTIES 3
FONT_ASCENT 13
FONT_DESCENT 2
DEFAULT_CHAR 32
ENDPROPERTIES
CHARS 191
STARTCHAR space
ENCODING 32
SWIDTH 572 0
DWIDTH 9 0
BBX 0 0 0 1
BITMAP
ENDCHAR
STARTCHAR exclam
ENCODING 33
SWIDTH 572 0
DWIDTH 9 0
BBX 5 9 3 1
BITMAP
18
18
10
30
30
30
60
e0
40
ENDCHAR
STARTCHAR quotedbl
ENCODING 34
SWIDTH 572 0
DWIDTH 9 0
BBX 6 5 3 5
BITMAP
6c
6c
d8
d8
d8
ENDCHAR
STARTCHAR numbersign
ENCODING 35
SWIDTH 572 0
DWIDTH 9 0
BBX 9 12 2 0
BITMAP
0900
1100
1100
1100
7f80
2200
2200
2200
ff00
4400
4400
4800
ENDCHAR
STARTCHAR dollar
ENCODING 36
SWIDTH 572 0
DWIDTH 9 0
BBX 9 13 1 -1
BITMAP
0600
0600
0f00
3700
3500
3800
0e00
0b00
6b00
6a00
5c00
1000
1000
ENDCHAR
STARTCHAR percent
ENCODING 37
SWIDTH 572 0
DWIDTH 9 0
BBX 8 10 2 1
BITMAP
70
d8
d8
f3
1c
60
8e
33
33
1e
ENDCHAR
STARTCHAR ampersand
ENCODING 38
SWIDTH 572 0
DWIDTH 9 0
BBX 8 9 1 1
BITMAP
1f
32
30
30
7b
ea
ce
cc
7e
ENDCHAR
STARTCHAR quoteright
ENCODING 39
SWIDTH 572 0
DWIDTH 9 0
BBX 5 4 3 6
BITMAP
30
30
60
c0
ENDCHAR
STARTCHAR parenleft
ENCODING 40
SWIDTH 572 0
DWIDTH 9 0
BBX 5 12 5 0
BITMAP
18
30
20
60
40
c0
c0
c0
c0
c0
c0
40
ENDCHAR
STARTCHAR parenright
ENCODING 41
SWIDTH 572 0
DWIDTH 9 0
BBX 6 12 1 0
BITMAP
18
1c
0c
0c
0c
0c
08
18
10
30
20
40
ENDCHAR
STARTCHAR asterisk
ENCODING 42
SWIDTH 572 0
DWIDTH 9 0
BBX 7 6 3 4
BITMAP
18
52
fe
38
78
48
ENDCHAR
STARTCHAR plus
ENCODING 43
SWIDTH 572 0
DWIDTH 9 0
BBX 8 8 2 2
BITMAP
18
18
18
18
ff
18
18
18
ENDCHAR
STARTCHAR comma
ENCODING 44
SWIDTH 572 0
DWIDTH 9 0
BBX 5 4 2 -1
BITMAP
30
30
60
c0
ENDCHAR
STARTCHAR minus
ENCODING 45
SWIDTH 572 0
DWIDTH 9 0
BBX 8 1 2 5
BITMAP
ff
ENDCHAR
STARTCHAR period
ENCODING 46
SWIDTH 572 0
DWIDTH 9 0
BBX 3 3 3 1
BITMAP
e0
e0
40
ENDCHAR
STARTCHAR slash
ENCODING 47
SWIDTH 572 0
DWIDTH 9 0
BBX 10 14 1 -1
BITMAP
00c0
00c0
0180
0300
0300
0600
0c00
0c00
1800
3000
3000
6000
c000
4000
ENDCHAR
STARTCHAR zero
ENCODING 48
SWIDTH 572 0
DWIDTH 9 0
BBX 8 10 2 1
BITMAP
1e
33
63
63
c3
c2
c6
c4
cc
70
ENDCHAR
STARTCHAR one
ENCODING 49
SWIDTH 572 0
DWIDTH 9 0
BBX 7 10 1 1
BITMAP
0c
3c
2c
0c
08
08
18
18
10
fe
ENDCHAR
STARTCHAR two
ENCODING 50
SWIDTH 572 0
DWIDTH 9 0
BBX 9 10 1 1
BITMAP
1f00
3180
2180
0180
0300
0600
1c00
3300
6200
fe00
ENDCHAR
STARTCHAR three
ENCODING 51
SWIDTH 572 0
DWIDTH 9 0
BBX 8 10 1 1
BITMAP
1e
33
03
03
0e
07
03
03
46
78
ENDCHAR
STARTCHAR four
ENCODING 52
SWIDTH 572 0
DWIDTH 9 0
BBX 7 10 2 1
BITMAP
06
0e
1c
34
24
4c
fe
08
08
3c
ENDCHAR
STARTCHAR five
ENCODING 53
SWIDTH 572 0
DWIDTH 9 0
BBX 9 10 1 1
BITMAP
1f00
1000
3000
2000
3e00
2300
0300
0300
4600
fc00
ENDCHAR
STARTCHAR six
ENCODING 54
SWIDTH 572 0
DWIDTH 9 0
BBX 8 10 2 1
BITMAP
0f
38
20
60
7c
e6
c6
c6
cc
78
ENDCHAR
STARTCHAR seven
ENCODING 55
SWIDTH 572 0
DWIDTH 9 0
BBX 7 10 3 1
BITMAP
fe
84
8c
08
18
10
30
20
60
40
ENDCHAR
STARTCHAR eight
ENCODING 56
SWIDTH 572 0
DWIDTH 9 0
BBX 8 10 2 1
BITMAP
1e
33
63
66
3c
6e
c6
c6
cc
78
ENDCHAR
STARTCHAR nine
ENCODING 57
SWIDTH 572 0
DWIDTH 9 0
BBX 9 10 1 1
BITMAP
0e00
1b80
3180
3180
3380
1f00
0300
0600
0c00
f000
ENDCHAR
STARTCHAR colon
ENCODING 58
SWIDTH 572 0
DWIDTH 9 0
BBX 4 7 3 1
BITMAP
70
70
20
00
e0
e0
40
ENDCHAR
STARTCHAR semicolon
ENCODING 59
SWIDTH 572 0
DWIDTH 9 0
BBX 5 9 2 -1
BITMAP
38
38
10
00
30
30
60
60
c0
ENDCHAR
STARTCHAR less
ENCODING 60
SWIDTH 572 0
DWIDTH 9 0
BBX 9 8 1 2
BITMAP
0180
0780
1e00
7000
7800
1e00
0780
0180
ENDCHAR
STARTCHAR equal
ENCODING 61
SWIDTH 572 0
DWIDTH 9 0
BBX 8 4 2 4
BITMAP
ff
00
00
ff
ENDCHAR
STARTCHAR greater
ENCODING 62
SWIDTH 572 0
DWIDTH 9 0
BBX 9 8 1 2
BITMAP
8000
f000
7c00
0f00
0f00
3c00
e000
8000
ENDCHAR
STARTCHAR question
ENCODING 63
SWIDTH 572 0
DWIDTH 9 0
BBX 6 9 3 1
BITMAP
78
cc
0c
1c
30
60
60
e0
40
ENDCHAR
STARTCHAR at
ENCODING 64
SWIDTH 572 0
DWIDTH 9 0
BBX 10 9 1 1
BITMAP
1f00
31c0
6ec0
5ec0
f4c0
fd80
df00
c300
7e00
ENDCHAR
STARTCHAR A
ENCODING 65
SWIDTH 572 0
DWIDTH 9 0
BBX 10 9 0 1
BITMAP
1f00
0700
0500
0900
1900
1f80
2180
6180
f3c0
ENDCHAR
STARTCHAR B
ENCODING 66
SWIDTH 572 0
DWIDTH 9 0
BBX 10 9 0 1
BITMAP
3f80
18c0
18c0
11c0
1f80
10c0
30c0
3180
7f00
ENDCHAR
STARTCHAR C
ENCODING 67
SWIDTH 572 0
DWIDTH 9 0
BBX 10 9 1 1
BITMAP
0e80
3180
6100
c000
c000
c000
c000
6300
3e00
ENDCHAR
STARTCHAR D
ENCODING 68
SWIDTH 572 0
DWIDTH 9 0
BBX 10 9 0 1
BITMAP
3f80
18c0
10c0
10c0
30c0
3080
3180
2300
fe00
ENDCHAR
STARTCHAR E
ENCODING 69
SWIDTH 572 0
DWIDTH 9 0
BBX 10 9 1 1
BITMAP
3fc0
10c0
1280
1200
3e00
3380
2180
2180
ff00
ENDCHAR
STARTCHAR F
ENCODING 70
SWIDTH 572 0
DWIDTH 9 0
BBX 10 9 1 1
BITMAP
3fc0
10c0
1280
3200
3e00
3600
2000
2000
f800
ENDCHAR
STARTCHAR G
ENCODING 71
SWIDTH 572 0
DWIDTH 9 0
BBX 10 9 1 1
BITMAP
0e80
3180
6180
c000
c000
c780
c100
6300
3e00
ENDCHAR
STARTCHAR H
ENCODING 72
SWIDTH 572 0
DWIDTH 9 0
BBX 11 9 0 1
BITMAP
3de0
1080
1080
3180
3f80
3180
2100
2100
f780
ENDCHAR
STARTCHAR I
ENCODING 73
SWIDTH 572 0
DWIDTH 9 0
BBX 9 9 1 1
BITMAP
3f80
0c00
0c00
0c00
0800
0800
1800
1800
fe00
ENDCHAR
STARTCHAR J
ENCODING 74
SWIDTH 572 0
DWIDTH 9 0
BBX 10 9 1 1
BITMAP
0fc0
0300
0200
0200
4200
c200
8600
c400
7800
ENDCHAR
STARTCHAR K
ENCODING 75
SWIDTH 572 0
DWIDTH 9 0
BBX 10 9 1 1
BITMAP
3bc0
1300
1600
1c00
3c00
2400
2600
2200
f380
ENDCHAR
STARTCHAR L
ENCODING 76
SWIDTH 572 0
DWIDTH 9 0
BBX 9 9 1 1
BITMAP
3c00
1000
1000
1000
1000
3180
2100
2100
ff00
ENDCHAR
STARTCHAR M
ENCODING 77
SWIDTH 572 0
DWIDTH 9 0
BBX 12 9 0 1
BITMAP
3c70
1ce0
3dc0
3d40
3640
26c0
60c0
60c0
f3c0
ENDCHAR
STARTCHAR N
ENCODING 78
SWIDTH 572 0
DWIDTH 9 0
BBX 11 9 0 1
BITMAP
39e0
18c0
3c80
2480
2480
2780
2380
6300
f300
ENDCHAR
STARTCHAR O
ENCODING 79
SWIDTH 572 0
DWIDTH 9 0
BBX 9 9 1 1
BITMAP
1f00
3180
6180
c180
c180
c180
c300
6600
3c00
ENDCHAR
STARTCHAR P
ENCODING 80
SWIDTH 572 0
DWIDTH 9 0
BBX 10 9 1 1
BITMAP
3f80
10c0
10c0
1180
3f00
2000
2000
2000
f800
ENDCHAR
STARTCHAR Q
ENCODING 81
SWIDTH 572 0
DWIDTH 9 0
BBX 9 11 1 -1
BITMAP
1f00
3180
6180
c180
c180
c180
c300
6600
3c00
7a00
4e00
ENDCHAR
STARTCHAR R
ENCODING 82
SWIDTH 572 0
DWIDTH 9 0
BBX 10 9 0 1
BITMAP
3f80
18c0
18c0
1180
1f00
1200
3200
2300
79c0
ENDCHAR
STARTCHAR S
ENCODING 83
SWIDTH 572 0
DWIDTH 9 0
BBX 9 9 1 1
BITMAP
1e80
7180
6100
7000
3e00
0300
c300
e600
bc00
ENDCHAR
STARTCHAR T
ENCODING 84
SWIDTH 572 0
DWIDTH 9 0
BBX 9 9 2 1
BITMAP
7f80
4980
c980
8900
1800
1800
1000
1000
7c00
ENDCHAR
STARTCHAR U
ENCODING 85
SWIDTH 572 0
DWIDTH 9 0
BBX 9 9 2 1
BITMAP
f780
4300
4300
4200
c200
c200
c600
c400
7800
ENDCHAR
STARTCHAR V
ENCODING 86
SWIDTH 572 0
DWIDTH 9 0
BBX 10 9 2 1
BITMAP
f3c0
6100
6300
2200
2600
2c00
3800
3800
3000
ENDCHAR
STARTCHAR W
ENCODING 87
SWIDTH 572 0
DWIDTH 9 0
BBX 10 9 2 1
BITMAP
f3c0
4180
4900
5900
df00
e600
e600
c600
c400
ENDCHAR
STARTCHAR X
ENCODING 88
SWIDTH 572 0
DWIDTH 9 0
BBX 11 9 0 1
BITMAP
3de0
1980
0f00
0e00
0e00
1a00
1300
2100
f380
ENDCHAR
STARTCHAR Y
ENCODING 89
SWIDTH 572 0
DWIDTH 9 0
BBX 9 9 2 1
BITMAP
f780
6200
2400
3c00
1800
1000
1000
3000
f800
ENDCHAR
STARTCHAR Z
ENCODING 90
SWIDTH 572 0
DWIDTH 9 0
BBX 9 9 1 1
BITMAP
3f80
2300
6600
0c00
0800
1100
3100
6300
fe00
ENDCHAR
STARTCHAR bracketleft
ENCODING 91
SWIDTH 572 0
DWIDTH 9 0
BBX 6 12 4 0
BITMAP
3c
30
20
20
20
60
60
40
40
40
c0
f0
ENDCHAR
STARTCHAR backslash
ENCODING 92
SWIDTH 572 0
DWIDTH 9 0
BBX 5 14 3 -1
BITMAP
80
c0
c0
40
60
60
60
20
30
30
30
10
18
18
ENDCHAR
STARTCHAR bracketright
ENCODING 93
SWIDTH 572 0
DWIDTH 9 0
BBX 6 12 1 0
BITMAP
3c
0c
08
08
08
18
18
10
10
10
30
f0
ENDCHAR
STARTCHAR asciicircum
ENCODING 94
SWIDTH 572 0
DWIDTH 9 0
BBX 8 7 2 3
BITMAP
38
3c
24
66
66
c3
c3
ENDCHAR
STARTCHAR underscore
ENCODING 95
SWIDTH 572 0
DWIDTH 9 0
BBX 11 1 -1 -1
BITMAP
ffe0
ENDCHAR
STARTCHAR quoteleft
ENCODING 96
SWIDTH 572 0
DWIDTH 9 0
BBX 5 4 3 6
BITMAP
18
30
60
60
ENDCHAR
STARTCHAR a
ENCODING 97
SWIDTH 572 0
DWIDTH 9 0
BBX 8 7 1 1
BITMAP
3f
23
3f
62
c2
ce
7f
ENDCHAR
STARTCHAR b
ENCODING 98
SWIDTH 572 0
DWIDTH 9 0
BBX 10 11 0 1
BITMAP
0800
3800
1000
1000
1780
38c0
30c0
20c0
2180
3180
fe00
ENDCHAR
STARTCHAR c
ENCODING 99
SWIDTH 572 0
DWIDTH 9 0
BBX 9 7 1 1
BITMAP
1e80
7180
e180
c000
c000
e380
3e00
ENDCHAR
STARTCHAR d
ENCODING 100
SWIDTH 572 0
DWIDTH 9 0
BBX 9 10 1 1
BITMAP
0700
0180
0180
1d80
6300
c300
c300
c300
c600
3b00
ENDCHAR
STARTCHAR e
ENCODING 101
SWIDTH 572 0
DWIDTH 9 0
BBX 9 7 1 1
BITMAP
1f00
7180
e180
ff80
c000
c300
3e00
ENDCHAR
STARTCHAR f
ENCODING 102
SWIDTH 572 0
DWIDTH 9 0
BBX 9 10 1 1
BITMAP
0f00
1800
1800
7e00
1000
1000
3000
3000
2000
fc00
ENDCHAR
STARTCHAR g
ENCODING 103
SWIDTH 572 0
DWIDTH 9 0
BBX 9 9 1 -1
BITMAP
3d80
6300
c300
c200
c600
6600
3e00
0400
7800
ENDCHAR
STARTCHAR h
ENCODING 104
SWIDTH 572 0
DWIDTH 9 0
BBX 10 11 0 1
BITMAP
0800
3800
1800
1800
1f00
1980
1080
3180
3100
2100
f780
ENDCHAR
STARTCHAR i
ENCODING 105
SWIDTH 572 0
DWIDTH 9 0
BBX 7 11 1 1
BITMAP
06
06
00
00
38
08
08
18
18
10
fe
ENDCHAR
STARTCHAR j
ENCODING 106
SWIDTH 572 0
DWIDTH 9 0
BBX 8 13 0 -1
BITMAP
03
03
00
00
3e
02
02
06
06
04
04
0c
f8
ENDCHAR
STARTCHAR k
ENCODING 107
SWIDTH 572 0
DWIDTH 9 0
BBX 9 11 0 1
BITMAP
1000
3000
1000
3000
3780
3600
3800
3800
2c00
2600
e700
ENDCHAR
STARTCHAR l
ENCODING 108
SWIDTH 572 0
DWIDTH 9 0
BBX 7 11 1 1
BITMAP
04
3c
2c
0c
08
08
08
18
18
10
fe
ENDCHAR
STARTCHAR m
ENCODING 109
SWIDTH 572 0
DWIDTH 9 0
BBX 10 7 0 1
BITMAP
7dc0
36c0
24c0
2480
6480
6c80
eec0
ENDCHAR
STARTCHAR n
ENCODING 110
SWIDTH 572 0
DWIDTH 9 0
BBX 10 7 0 1
BITMAP
3700
1980
3180
3180
3100
2100
f780
ENDCHAR
STARTCHAR o
ENCODING 111
SWIDTH 572 0
DWIDTH 9 0
BBX 9 7 1 1
BITMAP
1f00
6180
c180
c180
c300
e700
3c00
ENDCHAR
STARTCHAR p
ENCODING 112
SWIDTH 572 0
DWIDTH 9 0
BBX 10 9 0 -1
BITMAP
7780
38c0
30c0
20c0
2180
3180
7e00
6000
f800
ENDCHAR
STARTCHAR q
ENCODING 113
SWIDTH 572 0
DWIDTH 9 0
BBX 10 9 1 -1
BITMAP
1dc0
6300
c100
c300
c300
c600
3a00
0200
1f00
ENDCHAR
STARTCHAR r
ENCODING 114
SWIDTH 572 0
DWIDTH 9 0
BBX 9 7 1 1
BITMAP
3700
1880
1000
1000
1000
3000
fc00
ENDCHAR
STARTCHAR s
ENCODING 115
SWIDTH 572 0
DWIDTH 9 0
BBX 8 7 1 1
BITMAP
3d
63
70
3f
63
67
5c
ENDCHAR
STARTCHAR t
ENCODING 116
SWIDTH 572 0
DWIDTH 9 0
BBX 6 9 3 1
BITMAP
40
60
fc
40
40
c0
c0
cc
78
ENDCHAR
STARTCHAR u
ENCODING 117
SWIDTH 572 0
DWIDTH 9 0
BBX 7 7 2 1
BITMAP
ce
46
46
c6
c4
cc
7e
ENDCHAR
STARTCHAR v
ENCODING 118
SWIDTH 572 0
DWIDTH 9 0
BBX 10 7 1 1
BITMAP
f3c0
6100
2200
3600
3c00
3800
1000
ENDCHAR
STARTCHAR w
ENCODING 119
SWIDTH 572 0
DWIDTH 9 0
BBX 10 7 1 1
BITMAP
e1c0
4980
4d00
5f00
7600
6600
6400
ENDCHAR
STARTCHAR x
ENCODING 120
SWIDTH 572 0
DWIDTH 9 0
BBX 10 7 0 1
BITMAP
3bc0
1b00
0c00
0e00
1e00
3300
f780
ENDCHAR
STARTCHAR y
ENCODING 121
SWIDTH 572 0
DWIDTH 9 0
BBX 9 9 2 -1
BITMAP
e700
c200
c600
c600
c400
dc00
7400
0c00
f800
ENDCHAR
STARTCHAR z
ENCODING 122
SWIDTH 572 0
DWIDTH 9 0
BBX 8 7 1 1
BITMAP
3f
66
0c
18
32
62
fe
ENDCHAR
STARTCHAR braceleft
ENCODING 123
SWIDTH 572 0
DWIDTH 9 0
BBX 6 12 4 0
BITMAP
0c
1c
30
30
30
70
e0
60
60
60
c0
f0
ENDCHAR
STARTCHAR bar
ENCODING 124
SWIDTH 572 0
DWIDTH 9 0
BBX 2 14 5 -2
BITMAP
c0
c0
c0
c0
c0
c0
c0
c0
c0
c0
c0
c0
c0
c0
ENDCHAR
STARTCHAR braceright
ENCODING 125
SWIDTH 572 0
DWIDTH 9 0
BBX 5 12 2 0
BITMAP
30
18
18
18
30
30
18
30
30
30
30
e0
ENDCHAR
STARTCHAR asciitilde
ENCODING 126
SWIDTH 572 0
DWIDTH 9 0
BBX 7 3 2 5
BITMAP
62
fe
8c
ENDCHAR
STARTCHAR space
ENCODING 160
SWIDTH 572 0
DWIDTH 9 0
BBX 0 0 0 1
BITMAP
ENDCHAR
STARTCHAR Aogonek
ENCODING 161
SWIDTH 572 0
DWIDTH 9 0
BBX 10 11 0 -1
BITMAP
1e00
0700
0f00
0900
1900
1f00
2180
6180
f7c0
0700
0700
ENDCHAR
STARTCHAR breve
ENCODING 162
SWIDTH 572 0
DWIDTH 9 0
BBX 6 3 4 9
BITMAP
cc
c8
70
ENDCHAR
STARTCHAR Lslash
ENCODING 163
SWIDTH 572 0
DWIDTH 9 0
BBX 9 9 1 1
BITMAP
3c00
1000
1200
1c00
7000
7180
2100
2100
ff00
ENDCHAR
STARTCHAR currency
ENCODING 164
SWIDTH 572 0
DWIDTH 9 0
BBX 8 8 2 2
BITMAP
41
fe
e6
c6
c6
e6
fe
82
ENDCHAR
STARTCHAR Lcaron
ENCODING 165
SWIDTH 572 0
DWIDTH 9 0
BBX 10 10 1 1
BITMAP
0380
3e00
1000
1000
1000
1000
3180
2100
2100
ff00
ENDCHAR
STARTCHAR Sacute
ENCODING 166
SWIDTH 572 0
DWIDTH 9 0
BBX 9 12 1 1
BITMAP
0700
0400
0000
1e80
7180
6100
7000
3e00
0300
c300
e600
bc00
ENDCHAR
STARTCHAR section
ENCODING 167
SWIDTH 572 0
DWIDTH 9 0
BBX 8 10 2 0
BITMAP
1f
32
30
78
cc
e6
3e
18
98
f0
ENDCHAR
STARTCHAR dieresis
ENCODING 168
SWIDTH 572 0
DWIDTH 9 0
BBX 4 2 5 10
BITMAP
f0
f0
ENDCHAR
STARTCHAR Scaron
ENCODING 169
SWIDTH 572 0
DWIDTH 9 0
BBX 9 13 1 1
BITMAP
0900
0600
0000
0000
1e80
7180
6100
7000
3e00
0300
c300
e600
bc00
ENDCHAR
STARTCHAR Scedilla
ENCODING 170
SWIDTH 572 0
DWIDTH 9 0
BBX 9 12 1 -2
BITMAP
1e80
7180
6100
7000
3e00
0300
c300
e600
bc00
1800
2800
7800
ENDCHAR
STARTCHAR Tcaron
ENCODING 171
SWIDTH 572 0
DWIDTH 9 0
BBX 9 13 2 1
BITMAP
1200
0c00
0000
0000
7f80
4980
c980
8900
1800
1800
1000
1000
7c00
ENDCHAR
STARTCHAR Zacute
ENCODING 172
SWIDTH 572 0
DWIDTH 9 0
BBX 9 12 1 1
BITMAP
0700
0400
0000
3f80
2300
6600
0c00
0800
1100
3100
6300
fe00
ENDCHAR
STARTCHAR hyphen
ENCODING 173
SWIDTH 572 0
DWIDTH 9 0
BBX 4 1 4 5
BITMAP
f0
ENDCHAR
STARTCHAR Zcaron
ENCODING 174
SWIDTH 572 0
DWIDTH 9 0
BBX 9 13 1 1
BITMAP
0900
0600
0000
0000
3f80
2300
6600
0c00
0800
1100
3100
6300
fe00
ENDCHAR
STARTCHAR Zdotaccent
ENCODING 175
SWIDTH 572 0
DWIDTH 9 0
BBX 9 13 1 1
BITMAP
0200
0600
0000
0000
3f80
2300
6600
0c00
0800
1100
3100
6300
fe00
ENDCHAR
STARTCHAR degree
ENCODING 176
SWIDTH 572 0
DWIDTH 9 0
BBX 6 5 3 6
BITMAP
78
cc
cc
cc
70
ENDCHAR
STARTCHAR aogonek
ENCODING 177
SWIDTH 572 0
DWIDTH 9 0
BBX 8 9 1 -1
BITMAP
1f
23
3f
62
c2
ce
7b
0e
0e
ENDCHAR
STARTCHAR ogonek
ENCODING 178
SWIDTH 572 0
DWIDTH 9 0
BBX 3 2 3 -1
BITMAP
c0
e0
ENDCHAR
STARTCHAR lslash
ENCODING 179
SWIDTH 572 0
DWIDTH 9 0
BBX 8 11 1 1
BITMAP
04
3c
2c
0c
0f
0e
38
78
18
18
fe
ENDCHAR
STARTCHAR acute
ENCODING 180
SWIDTH 572 0
DWIDTH 9 0
BBX 4 2 5 9
BITMAP
e0
80
ENDCHAR
STARTCHAR lcaron
ENCODING 181
SWIDTH 572 0
DWIDTH 9 0
BBX 10 11 1 1
BITMAP
0400
3f80
2e00
0c00
0800
0800
0800
1800
1800
1000
fe00
ENDCHAR
STARTCHAR sacute
ENCODING 182
SWIDTH 572 0
DWIDTH 9 0
BBX 8 10 1 1
BITMAP
0e
08
00
3d
63
70
3f
63
67
5c
ENDCHAR
STARTCHAR caron
ENCODING 183
SWIDTH 572 0
DWIDTH 9 0
BBX 4 2 5 9
BITMAP
d0
60
ENDCHAR
STARTCHAR cedilla
ENCODING 184
SWIDTH 572 0
DWIDTH 9 0
BBX 4 4 3 -2
BITMAP
60
70
b0
e0
ENDCHAR
STARTCHAR scaron
ENCODING 185
SWIDTH 572 0
DWIDTH 9 0
BBX 8 10 1 1
BITMAP
0d
06
00
3d
63
70
3f
63
67
5c
ENDCHAR
STARTCHAR scedilla
ENCODING 186
SWIDTH 572 0
DWIDTH 9 0
BBX 8 10 1 -2
BITMAP
3d
63
70
3f
63
67
7c
1c
1c
38
ENDCHAR
STARTCHAR tcaron
ENCODING 187
SWIDTH 572 0
DWIDTH 9 0
BBX 7 10 3 1
BITMAP
1c
50
60
fc
40
40
c0
c0
cc
78
ENDCHAR
STARTCHAR zacute
ENCODING 188
SWIDTH 572 0
DWIDTH 9 0
BBX 8 10 1 1
BITMAP
0e
08
00
3f
66
0c
18
32
62
fe
ENDCHAR
STARTCHAR hungarumlaut
ENCODING 189
SWIDTH 572 0
DWIDTH 9 0
BBX 7 2 4 9
BITMAP
7c
50
ENDCHAR
STARTCHAR zcaron
ENCODING 190
SWIDTH 572 0
DWIDTH 9 0
BBX 8 10 1 1
BITMAP
0d
06
00
3f
66
0c
18
32
62
fe
ENDCHAR
STARTCHAR zdotaccent
ENCODING 191
SWIDTH 572 0
DWIDTH 9 0
BBX 8 11 1 1
BITMAP
02
06
00
00
3f
66
0c
18
32
62
fe
ENDCHAR
STARTCHAR Racute
ENCODING 192
SWIDTH 572 0
DWIDTH 9 0
BBX 10 12 0 1
BITMAP
0380
0200
0000
3f80
18c0
18c0
1180
1f00
1200
3200
2300
79c0
ENDCHAR
STARTCHAR Aacute
ENCODING 193
SWIDTH 572 0
DWIDTH 9 0
BBX 10 12 0 1
BITMAP
0380
0200
0000
1f00
0700
0500
0900
1900
1f80
2180
6180
f3c0
ENDCHAR
STARTCHAR Acircumflex
ENCODING 194
SWIDTH 572 0
DWIDTH 9 0
BBX 10 12 0 1
BITMAP
0600
0000
0000
1f00
0700
0500
0900
1900
1f80
2180
6180
f3c0
ENDCHAR
STARTCHAR Abreve
ENCODING 195
SWIDTH 572 0
DWIDTH 9 0
BBX 10 13 0 1
BITMAP
0cc0
0c80
0700
0000
1f00
0700
0500
0900
1900
1f80
2180
6180
f3c0
ENDCHAR
STARTCHAR Adieresis
ENCODING 196
SWIDTH 572 0
DWIDTH 9 0
BBX 10 13 0 1
BITMAP
0780
0780
0000
0000
1f00
0700
0500
0900
1900
1f80
2180
6180
f3c0
ENDCHAR
STARTCHAR Lacute
ENCODING 197
SWIDTH 572 0
DWIDTH 9 0
BBX 9 12 1 1
BITMAP
1c00
1000
0000
3c00
1000
1000
1000
1000
3180
2100
2100
ff00
ENDCHAR
STARTCHAR Cacute
ENCODING 198
SWIDTH 572 0
DWIDTH 9 0
BBX 10 12 1 1
BITMAP
0700
0400
0000
0e80
3180
6100
c000
c000
c000
c000
6300
3e00
ENDCHAR
STARTCHAR Ccedilla
ENCODING 199
SWIDTH 572 0
DWIDTH 9 0
BBX 10 12 1 -2
BITMAP
0e80
3180
6100
c000
c000
c000
c000
6300
3e00
0c00
0c00
3c00
ENDCHAR
STARTCHAR Ccaron
ENCODING 200
SWIDTH 572 0
DWIDTH 9 0
BBX 10 13 1 1
BITMAP
0900
0600
0000
0000
0e80
3180
6100
c000
c000
c000
c000
6300
3e00
ENDCHAR
STARTCHAR Eacute
ENCODING 201
SWIDTH 572 0
DWIDTH 9 0
BBX 10 12 1 1
BITMAP
0700
0400
0000
3fc0
10c0
1280
1200
3e00
3380
2180
2180
ff00
ENDCHAR
STARTCHAR Eogonek
ENCODING 202
SWIDTH 572 0
DWIDTH 9 0
BBX 10 11 1 -1
BITMAP
3f80
1080
3280
3600
3e00
2500
2100
6100
ff00
0e00
0e00
ENDCHAR
STARTCHAR Edieresis
ENCODING 203
SWIDTH 572 0
DWIDTH 9 0
BBX 10 13 1 1
BITMAP
0f00
0f00
0000
0000
3fc0
10c0
1280
1200
3e00
3380
2180
2180
ff00
ENDCHAR
STARTCHAR Ecaron
ENCODING 204
SWIDTH 572 0
DWIDTH 9 0
BBX 10 13 1 1
BITMAP
0900
0600
0000
0000
3fc0
10c0
1280
1200
3e00
3380
2180
2180
ff00
ENDCHAR
STARTCHAR Iacute
ENCODING 205
SWIDTH 572 0
DWIDTH 9 0
BBX 9 12 1 1
BITMAP
0700
0400
0000
3f80
0c00
0c00
0c00
0800
0800
1800
1800
fe00
ENDCHAR
STARTCHAR Icircumflex
ENCODING 206
SWIDTH 572 0
DWIDTH 9 0
BBX 9 12 1 1
BITMAP
0600
0000
0000
3f80
0c00
0c00
0c00
0800
0800
1800
1800
fe00
ENDCHAR
STARTCHAR Dcaron
ENCODING 207
SWIDTH 572 0
DWIDTH 9 0
BBX 10 13 0 1
BITMAP
0480
0300
0000
0000
3f80
18c0
10c0
10c0
30c0
3080
3180
2300
fe00
ENDCHAR
STARTCHAR Eth
ENCODING 208
SWIDTH 572 0
DWIDTH 9 0
BBX 10 9 0 1
BITMAP
3f80
18c0
10c0
10c0
7ec0
3080
3180
2300
fe00
ENDCHAR
STARTCHAR Nacute
ENCODING 209
SWIDTH 572 0
DWIDTH 9 0
BBX 11 12 0 1
BITMAP
0380
0200
0000
39e0
18c0
3c80
2480
2480
2780
2380
6300
f300
ENDCHAR
STARTCHAR Ncaron
ENCODING 210
SWIDTH 572 0
DWIDTH 9 0
BBX 11 13 0 1
BITMAP
0480
0300
0000
0000
39e0
18c0
3c80
2480
2480
2780
2380
6300
f300
ENDCHAR
STARTCHAR Oacute
ENCODING 211
SWIDTH 572 0
DWIDTH 9 0
BBX 9 12 1 1
BITMAP
0700
0400
0000
1f00
3180
6180
c180
c180
c180
c300
6600
3c00
ENDCHAR
STARTCHAR Ocircumflex
ENCODING 212
SWIDTH 572 0
DWIDTH 9 0
BBX 9 12 1 1
BITMAP
0600
0000
0000
1f00
3180
6180
c180
c180
c180
c300
6600
3c00
ENDCHAR
STARTCHAR Ohungarumlaut
ENCODING 213
SWIDTH 572 0
DWIDTH 9 0
BBX 10 12 1 1
BITMAP
0f80
0a00
0000
1f00
3180
6180
c180
c180
c180
c300
6600
3c00
ENDCHAR
STARTCHAR Odieresis
ENCODING 214
SWIDTH 572 0
DWIDTH 9 0
BBX 9 13 1 1
BITMAP
0f00
0f00
0000
0000
1f00
3180
6180
c180
c180
c180
c300
6600
3c00
ENDCHAR
STARTCHAR multiply
ENCODING 215
SWIDTH 572 0
DWIDTH 9 0
BBX 7 6 2 3
BITMAP
44
6e
3c
38
6c
c6
ENDCHAR
STARTCHAR Rcaron
ENCODING 216
SWIDTH 572 0
DWIDTH 9 0
BBX 10 13 0 1
BITMAP
0480
0300
0000
0000
3f80
18c0
18c0
1180
1f00
1200
3200
2300
79c0
ENDCHAR
STARTCHAR Uring
ENCODING 217
SWIDTH 572 0
DWIDTH 9 0
BBX 9 13 2 1
BITMAP
1c00
1e00
0c00
0000
f780
4300
4300
4200
c200
c200
c600
c400
7800
ENDCHAR
STARTCHAR Uacute
ENCODING 218
SWIDTH 572 0
DWIDTH 9 0
BBX 9 12 2 1
BITMAP
0e00
0800
0000
f780
4300
4300
4200
c200
c200
c600
c400
7800
ENDCHAR
STARTCHAR Uhungarumlaut
ENCODING 219
SWIDTH 572 0
DWIDTH 9 0
BBX 9 12 2 1
BITMAP
1f00
1400
0000
f780
4300
4300
4200
c200
c200
c600
c400
7800
ENDCHAR
STARTCHAR Udieresis
ENCODING 220
SWIDTH 572 0
DWIDTH 9 0
BBX 9 13 2 1
BITMAP
1e00
1e00
0000
0000
f780
4300
4300
4200
c200
c200
c600
c400
7800
ENDCHAR
STARTCHAR Yacute
ENCODING 221
SWIDTH 572 0
DWIDTH 9 0
BBX 9 12 2 1
BITMAP
0e00
0800
0000
f780
6200
2400
3c00
1800
1000
1000
3000
f800
ENDCHAR
STARTCHAR Tcedilla
ENCODING 222
SWIDTH 572 0
DWIDTH 9 0
BBX 9 12 2 -2
BITMAP
7f80
4980
c980
8900
1800
1800
1000
1000
7c00
3800
5800
7000
ENDCHAR
STARTCHAR germandbls
ENCODING 223
SWIDTH 572 0
DWIDTH 9 0
BBX 8 10 1 1
BITMAP
0f
13
33
26
2e
27
63
63
46
cc
ENDCHAR
STARTCHAR racute
ENCODING 224
SWIDTH 572 0
DWIDTH 9 0
BBX 9 10 1 1
BITMAP
0e00
0800
0000
3700
1880
1000
1000
1000
3000
fc00
ENDCHAR
STARTCHAR aacute
ENCODING 225
SWIDTH 572 0
DWIDTH 9 0
BBX 8 10 1 1
BITMAP
0e
08
00
3f
23
3f
62
c2
ce
7f
ENDCHAR
STARTCHAR acircumflex
ENCODING 226
SWIDTH 572 0
DWIDTH 9 0
BBX 8 10 1 1
BITMAP
06
00
00
3f
23
3f
62
c2
ce
7f
ENDCHAR
STARTCHAR abreve
ENCODING 227
SWIDTH 572 0
DWIDTH 9 0
BBX 9 11 1 1
BITMAP
1980
1900
0e00
0000
3f00
2300
3f00
6200
c200
ce00
7f00
ENDCHAR
STARTCHAR adieresis
ENCODING 228
SWIDTH 572 0
DWIDTH 9 0
BBX 8 11 1 1
BITMAP
0f
0f
00
00
3f
23
3f
62
c2
ce
7f
ENDCHAR
STARTCHAR lacute
ENCODING 229
SWIDTH 572 0
DWIDTH 9 0
BBX 8 13 1 1
BITMAP
0e
08
04
3c
2c
0c
08
08
08
18
18
10
fe
ENDCHAR
STARTCHAR cacute
ENCODING 230
SWIDTH 572 0
DWIDTH 9 0
BBX 9 10 1 1
BITMAP
0e00
0800
0000
1e80
7180
e180
c000
c000
e380
3e00
ENDCHAR
STARTCHAR ccedilla
ENCODING 231
SWIDTH 572 0
DWIDTH 9 0
BBX 9 10 1 -2
BITMAP
1e80
7180
e180
c000
c000
e380
3e00
1c00
0c00
7800
ENDCHAR
STARTCHAR ccaron
ENCODING 232
SWIDTH 572 0
DWIDTH 9 0
BBX 9 10 1 1
BITMAP
0d00
0600
0000
1e80
7180
e180
c000
c000
e380
3e00
ENDCHAR
STARTCHAR eacute
ENCODING 233
SWIDTH 572 0
DWIDTH 9 0
BBX 9 10 1 1
BITMAP
0e00
0800
0000
1f00
7180
e180
ff80
c000
c300
3e00
ENDCHAR
STARTCHAR eogonek
ENCODING 234
SWIDTH 572 0
DWIDTH 9 0
BBX 9 9 1 -1
BITMAP
1f00
7180
e180
ff80
c000
6300
3e00
3800
3800
ENDCHAR
STARTCHAR edieresis
ENCODING 235
SWIDTH 572 0
DWIDTH 9 0
BBX 9 11 1 1
BITMAP
0f00
0f00
0000
0000
1f00
7180
e180
ff80
c000
c300
3e00
ENDCHAR
STARTCHAR ecaron
ENCODING 236
SWIDTH 572 0
DWIDTH 9 0
BBX 9 10 1 1
BITMAP
0d00
0600
0000
1f00
7180
e180
ff80
c000
c300
3e00
ENDCHAR
STARTCHAR iacute
ENCODING 237
SWIDTH 572 0
DWIDTH 9 0
BBX 8 10 1 1
BITMAP
0e
08
00
38
08
08
18
18
10
fe
ENDCHAR
STARTCHAR icircumflex
ENCODING 238
SWIDTH 572 0
DWIDTH 9 0
BBX 8 10 1 1
BITMAP
06
00
00
38
08
08
18
18
10
fe
ENDCHAR
STARTCHAR dcaron
ENCODING 239
SWIDTH 572 0
DWIDTH 9 0
BBX 13 10 1 1
BITMAP
0770
01c0
0180
1d80
6300
c300
c300
c300
c600
3b00
ENDCHAR
STARTCHAR dbar
ENCODING 240
SWIDTH 572 0
DWIDTH 9 0
BBX 10 10 1 1
BITMAP
0700
0180
1fc0
1d00
6300
4300
c300
c300
c600
7b00
ENDCHAR
STARTCHAR nacute
ENCODING 241
SWIDTH 572 0
DWIDTH 9 0
BBX 10 10 0 1
BITMAP
0700
0400
0000
3700
1980
3180
3180
3100
2100
f780
ENDCHAR
STARTCHAR ncaron
ENCODING 242
SWIDTH 572 0
DWIDTH 9 0
BBX 10 10 0 1
BITMAP
0680
0300
0000
3700
1980
3180
3180
3100
2100
f780
ENDCHAR
STARTCHAR oacute
ENCODING 243
SWIDTH 572 0
DWIDTH 9 0
BBX 9 10 1 1
BITMAP
0e00
0800
0000
1f00
6180
c180
c180
c300
e700
3c00
ENDCHAR
STARTCHAR ocircumflex
ENCODING 244
SWIDTH 572 0
DWIDTH 9 0
BBX 9 10 1 1
BITMAP
0600
0000
0000
1f00
6180
c180
c180
c300
e700
3c00
ENDCHAR
STARTCHAR ohungarumlaut
ENCODING 245
SWIDTH 572 0
DWIDTH 9 0
BBX 10 10 1 1
BITMAP
0f80
0a00
0000
1f00
6180
c180
c180
c300
e700
3c00
ENDCHAR
STARTCHAR odieresis
ENCODING 246
SWIDTH 572 0
DWIDTH 9 0
BBX 9 11 1 1
BITMAP
0f00
0f00
0000
0000
1f00
6180
c180
c180
c300
e700
3c00
ENDCHAR
STARTCHAR divide
ENCODING 247
SWIDTH 572 0
DWIDTH 9 0
BBX 8 7 2 2
BITMAP
18
18
ff
00
00
18
18
ENDCHAR
STARTCHAR rcaron
ENCODING 248
SWIDTH 572 0
DWIDTH 9 0
BBX 9 10 1 1
BITMAP
0d00
0600
0000
3700
1880
1000
1000
1000
3000
fc00
ENDCHAR
STARTCHAR uring
ENCODING 249
SWIDTH 572 0
DWIDTH 9 0
BBX 7 11 2 1
BITMAP
1c
3c
18
00
ce
46
46
c6
c4
cc
7e
ENDCHAR
STARTCHAR uacute
ENCODING 250
SWIDTH 572 0
DWIDTH 9 0
BBX 7 10 2 1
BITMAP
1c
10
00
ce
46
46
c6
c4
cc
7e
ENDCHAR
STARTCHAR uhungarumlaut
ENCODING 251
SWIDTH 572 0
DWIDTH 9 0
BBX 9 10 2 1
BITMAP
1f00
1400
0000
ce00
4600
4600
c600
c400
cc00
7e00
ENDCHAR
STARTCHAR udieresis
ENCODING 252
SWIDTH 572 0
DWIDTH 9 0
BBX 7 11 2 1
BITMAP
1e
1e
00
00
ce
46
46
c6
c4
cc
7e
ENDCHAR
STARTCHAR yacute
ENCODING 253
SWIDTH 572 0
DWIDTH 9 0
BBX 9 12 2 -1
BITMAP
1c00
1000
0000
e700
c200
c600
c600
c400
dc00
7400
0c00
f800
ENDCHAR
STARTCHAR tcedilla
ENCODING 254
SWIDTH 572 0
DWIDTH 9 0
BBX 6 12 3 -2
BITMAP
60
60
fc
40
40
c0
c0
cc
78
30
70
e0
ENDCHAR
STARTCHAR dotaccent
ENCODING 255
SWIDTH 572 0
DWIDTH 9 0
BBX 2 2 6 10
BITMAP
40
c0
ENDCHAR
ENDFONT
